<svg width="16" height="18" viewBox="0 0 16 18" fill="none" xmlns="http://www.w3.org/2000/svg">
<path fill-rule="evenodd" clip-rule="evenodd" d="M0 6.94389C0 6.34635 0.26718 5.78011 0.728394 5.40019L6.72839 0.457762C7.46697 -0.150634 8.53303 -0.150634 9.27161 0.457762L15.2716 5.40019C15.7328 5.78011 16 6.34635 16 6.94389V16.0002C16 17.1048 15.1046 18.0002 14 18.0002H2C0.895431 18.0002 0 17.1048 0 16.0002V6.94389ZM14 6.94389V16.0002H11V11C11 9.34315 9.65685 8 8 8C6.34315 8 5 9.34315 5 11V16.0002H2V6.94389L8 2.00146L14 6.94389ZM9 11V16H7V11C7 10.4477 7.44772 10 8 10C8.55228 10 9 10.4477 9 11Z" fill="#474D57"/>
</svg>
